<svg id="visual" viewBox="0 0 900 600" width="900" height="600" xmlns="http://www.w3.org/2000/svg" xmlns:xlink="http://www.w3.org/1999/xlink" version="1.1"><path d="M0 257L16.7 250C33.3 243 66.7 229 100 225.8C133.3 222.7 166.7 230.3 200 232.5C233.3 234.7 266.7 231.3 300 230C333.3 228.7 366.7 229.3 400 233.8C433.3 238.3 466.7 246.7 500 247.7C533.3 248.7 566.7 242.3 600 240.5C633.3 238.7 666.7 241.3 700 245.5C733.3 249.7 766.7 255.3 800 252.8C833.3 250.3 866.7 239.7 883.3 234.3L900 229L900 0L883.3 0C866.7 0 833.3 0 800 0C766.7 0 733.3 0 700 0C666.7 0 633.3 0 600 0C566.7 0 533.3 0 500 0C466.7 0 433.3 0 400 0C366.7 0 333.3 0 300 0C266.7 0 233.3 0 200 0C166.7 0 133.3 0 100 0C66.7 0 33.3 0 16.7 0L0 0Z" fill="#f5d06a"></path><path d="M0 203L16.7 194.8C33.3 186.7 66.7 170.3 100 169C133.3 167.7 166.7 181.3 200 181.7C233.3 182 266.7 169 300 164.3C333.3 159.7 366.7 163.3 400 165.8C433.3 168.3 466.7 169.7 500 168C533.3 166.3 566.7 161.7 600 164.5C633.3 167.3 666.7 177.7 700 188C733.3 198.3 766.7 208.7 800 210.8C833.3 213 866.7 207 883.3 204L900 201L900 0L883.3 0C866.7 0 833.3 0 800 0C766.7 0 733.3 0 700 0C666.7 0 633.3 0 600 0C566.7 0 533.3 0 500 0C466.7 0 433.3 0 400 0C366.7 0 333.3 0 300 0C266.7 0 233.3 0 200 0C166.7 0 133.3 0 100 0C66.7 0 33.3 0 16.7 0L0 0Z" fill="#f6d37d"></path><path d="M0 128L16.7 131.5C33.3 135 66.7 142 100 148.8C133.3 155.7 166.7 162.3 200 165.8C233.3 169.3 266.7 169.7 300 162.7C333.3 155.7 366.7 141.3 400 133.2C433.3 125 466.7 123 500 128.3C533.3 133.7 566.7 146.3 600 151.5C633.3 156.7 666.7 154.3 700 148.8C733.3 143.3 766.7 134.7 800 129.2C833.3 123.7 866.7 121.3 883.3 120.2L900 119L900 0L883.3 0C866.7 0 833.3 0 800 0C766.7 0 733.3 0 700 0C666.7 0 633.3 0 600 0C566.7 0 533.3 0 500 0C466.7 0 433.3 0 400 0C366.7 0 333.3 0 300 0C266.7 0 233.3 0 200 0C166.7 0 133.3 0 100 0C66.7 0 33.3 0 16.7 0L0 0Z" fill="#f7d78f"></path><path d="M0 96L16.7 99C33.3 102 66.7 108 100 105.5C133.3 103 166.7 92 200 91.2C233.3 90.3 266.7 99.7 300 100.2C333.3 100.7 366.7 92.3 400 89.3C433.3 86.3 466.7 88.7 500 89.8C533.3 91 566.7 91 600 93.5C633.3 96 666.7 101 700 106.2C733.3 111.3 766.7 116.7 800 117.7C833.3 118.7 866.7 115.3 883.3 113.7L900 112L900 0L883.3 0C866.7 0 833.3 0 800 0C766.7 0 733.3 0 700 0C666.7 0 633.3 0 600 0C566.7 0 533.3 0 500 0C466.7 0 433.3 0 400 0C366.7 0 333.3 0 300 0C266.7 0 233.3 0 200 0C166.7 0 133.3 0 100 0C66.7 0 33.3 0 16.7 0L0 0Z" fill="#f6daa1"></path><path d="M0 51L16.7 50.2C33.3 49.3 66.7 47.7 100 51.5C133.3 55.3 166.7 64.7 200 67.2C233.3 69.7 266.7 65.3 300 61C333.3 56.7 366.7 52.3 400 54.2C433.3 56 466.7 64 500 66.8C533.3 69.7 566.7 67.3 600 64.3C633.3 61.3 666.7 57.7 700 54C733.3 50.3 766.7 46.7 800 45.7C833.3 44.7 866.7 46.3 883.3 47.2L900 48L900 0L883.3 0C866.7 0 833.3 0 800 0C766.7 0 733.3 0 700 0C666.7 0 633.3 0 600 0C566.7 0 533.3 0 500 0C466.7 0 433.3 0 400 0C366.7 0 333.3 0 300 0C266.7 0 233.3 0 200 0C166.7 0 133.3 0 100 0C66.7 0 33.3 0 16.7 0L0 0Z" fill="#f5deb3"></path></svg>