<svg id="visual" viewBox="0 0 900 600" width="900" height="600" xmlns="http://www.w3.org/2000/svg" xmlns:xlink="http://www.w3.org/1999/xlink" version="1.1"><path d="M0 93L16.7 91.2C33.3 89.3 66.7 85.7 100 84C133.3 82.3 166.7 82.7 200 83.2C233.3 83.7 266.7 84.3 300 85.2C333.3 86 366.7 87 400 87.8C433.3 88.7 466.7 89.3 500 89.5C533.3 89.7 566.7 89.3 600 88.8C633.3 88.3 666.7 87.7 700 86.8C733.3 86 766.7 85 800 85.8C833.3 86.7 866.7 89.3 883.3 90.7L900 92L900 0L883.3 0C866.7 0 833.3 0 800 0C766.7 0 733.3 0 700 0C666.7 0 633.3 0 600 0C566.7 0 533.3 0 500 0C466.7 0 433.3 0 400 0C366.7 0 333.3 0 300 0C266.7 0 233.3 0 200 0C166.7 0 133.3 0 100 0C66.7 0 33.3 0 16.7 0L0 0Z" fill="#efb105"></path><path d="M0 60L16.7 60.7C33.3 61.3 66.7 62.7 100 65.2C133.3 67.7 166.7 71.3 200 72.7C233.3 74 266.7 73 300 71.7C333.3 70.3 366.7 68.7 400 68.3C433.3 68 466.7 69 500 68C533.3 67 566.7 64 600 62.3C633.3 60.7 666.7 60.3 700 60.2C733.3 60 766.7 60 800 62.3C833.3 64.7 866.7 69.3 883.3 71.7L900 74L900 0L883.3 0C866.7 0 833.3 0 800 0C766.7 0 733.3 0 700 0C666.7 0 633.3 0 600 0C566.7 0 533.3 0 500 0C466.7 0 433.3 0 400 0C366.7 0 333.3 0 300 0C266.7 0 233.3 0 200 0C166.7 0 133.3 0 100 0C66.7 0 33.3 0 16.7 0L0 0Z" fill="#f2bd45"></path><path d="M0 52L16.7 51.7C33.3 51.3 66.7 50.7 100 51.3C133.3 52 166.7 54 200 53.2C233.3 52.3 266.7 48.7 300 47.5C333.3 46.3 366.7 47.7 400 49.8C433.3 52 466.7 55 500 56.7C533.3 58.3 566.7 58.7 600 58.7C633.3 58.7 666.7 58.3 700 56C733.3 53.7 766.7 49.3 800 48.8C833.3 48.3 866.7 51.7 883.3 53.3L900 55L900 0L883.3 0C866.7 0 833.3 0 800 0C766.7 0 733.3 0 700 0C666.7 0 633.3 0 600 0C566.7 0 533.3 0 500 0C466.7 0 433.3 0 400 0C366.7 0 333.3 0 300 0C266.7 0 233.3 0 200 0C166.7 0 133.3 0 100 0C66.7 0 33.3 0 16.7 0L0 0Z" fill="#f4c86c"></path><path d="M0 28L16.7 28.7C33.3 29.3 66.7 30.7 100 32.2C133.3 33.7 166.7 35.3 200 36.5C233.3 37.7 266.7 38.3 300 37.3C333.3 36.3 366.7 33.7 400 32.3C433.3 31 466.7 31 500 32.3C533.3 33.7 566.7 36.3 600 37.7C633.3 39 666.7 39 700 38.3C733.3 37.7 766.7 36.3 800 35.7C833.3 35 866.7 35 883.3 35L900 35L900 0L883.3 0C866.7 0 833.3 0 800 0C766.7 0 733.3 0 700 0C666.7 0 633.3 0 600 0C566.7 0 533.3 0 500 0C466.7 0 433.3 0 400 0C366.7 0 333.3 0 300 0C266.7 0 233.3 0 200 0C166.7 0 133.3 0 100 0C66.7 0 33.3 0 16.7 0L0 0Z" fill="#f5d390"></path><path d="M0 24L16.7 23.8C33.3 23.7 66.7 23.3 100 21.7C133.3 20 166.7 17 200 17.2C233.3 17.3 266.7 20.7 300 21.3C333.3 22 366.7 20 400 18.5C433.3 17 466.7 16 500 16C533.3 16 566.7 17 600 18.2C633.3 19.3 666.7 20.7 700 20C733.3 19.3 766.7 16.7 800 15.7C833.3 14.7 866.7 15.3 883.3 15.7L900 16L900 0L883.3 0C866.7 0 833.3 0 800 0C766.7 0 733.3 0 700 0C666.7 0 633.3 0 600 0C566.7 0 533.3 0 500 0C466.7 0 433.3 0 400 0C366.7 0 333.3 0 300 0C266.7 0 233.3 0 200 0C166.7 0 133.3 0 100 0C66.7 0 33.3 0 16.7 0L0 0Z" fill="#f5deb3"></path></svg>