<svg id="visual" viewBox="0 0 900 600" width="900" height="600" xmlns="http://www.w3.org/2000/svg" xmlns:xlink="http://www.w3.org/1999/xlink" version="1.1"><path d="M0 171L16.7 168C33.3 165 66.7 159 100 151.3C133.3 143.7 166.7 134.3 200 137.3C233.3 140.3 266.7 155.7 300 158.3C333.3 161 366.7 151 400 150.7C433.3 150.3 466.7 159.7 500 163C533.3 166.3 566.7 163.7 600 156.3C633.3 149 666.7 137 700 136.2C733.3 135.3 766.7 145.7 800 149.7C833.3 153.7 866.7 151.3 883.3 150.2L900 149L900 0L883.3 0C866.7 0 833.3 0 800 0C766.7 0 733.3 0 700 0C666.7 0 633.3 0 600 0C566.7 0 533.3 0 500 0C466.7 0 433.3 0 400 0C366.7 0 333.3 0 300 0C266.7 0 233.3 0 200 0C166.7 0 133.3 0 100 0C66.7 0 33.3 0 16.7 0L0 0Z" fill="#f2bd44"></path><path d="M0 127L16.7 123.3C33.3 119.7 66.7 112.3 100 109.7C133.3 107 166.7 109 200 110.2C233.3 111.3 266.7 111.7 300 117.3C333.3 123 366.7 134 400 139.5C433.3 145 466.7 145 500 144.2C533.3 143.3 566.7 141.7 600 134.5C633.3 127.3 666.7 114.7 700 114.2C733.3 113.7 766.7 125.3 800 127.2C833.3 129 866.7 121 883.3 117L900 113L900 0L883.3 0C866.7 0 833.3 0 800 0C766.7 0 733.3 0 700 0C666.7 0 633.3 0 600 0C566.7 0 533.3 0 500 0C466.7 0 433.3 0 400 0C366.7 0 333.3 0 300 0C266.7 0 233.3 0 200 0C166.7 0 133.3 0 100 0C66.7 0 33.3 0 16.7 0L0 0Z" fill="#f4c662"></path><path d="M0 101L16.7 102C33.3 103 66.7 105 100 102C133.3 99 166.7 91 200 91.7C233.3 92.3 266.7 101.7 300 103.5C333.3 105.3 366.7 99.7 400 98.2C433.3 96.7 466.7 99.3 500 101.5C533.3 103.7 566.7 105.3 600 107.3C633.3 109.3 666.7 111.7 700 109.7C733.3 107.7 766.7 101.3 800 95.5C833.3 89.7 866.7 84.3 883.3 81.7L900 79L900 0L883.3 0C866.7 0 833.3 0 800 0C766.7 0 733.3 0 700 0C666.7 0 633.3 0 600 0C566.7 0 533.3 0 500 0C466.7 0 433.3 0 400 0C366.7 0 333.3 0 300 0C266.7 0 233.3 0 200 0C166.7 0 133.3 0 100 0C66.7 0 33.3 0 16.7 0L0 0Z" fill="#f5ce7e"></path><path d="M0 78L16.7 77.5C33.3 77 66.7 76 100 75.8C133.3 75.7 166.7 76.3 200 72.8C233.3 69.3 266.7 61.7 300 60.2C333.3 58.7 366.7 63.3 400 67.5C433.3 71.7 466.7 75.3 500 72.8C533.3 70.3 566.7 61.7 600 62C633.3 62.3 666.7 71.7 700 74.3C733.3 77 766.7 73 800 71.7C833.3 70.3 866.7 71.7 883.3 72.3L900 73L900 0L883.3 0C866.7 0 833.3 0 800 0C766.7 0 733.3 0 700 0C666.7 0 633.3 0 600 0C566.7 0 533.3 0 500 0C466.7 0 433.3 0 400 0C366.7 0 333.3 0 300 0C266.7 0 233.3 0 200 0C166.7 0 133.3 0 100 0C66.7 0 33.3 0 16.7 0L0 0Z" fill="#f5d699"></path><path d="M0 44L16.7 43.8C33.3 43.7 66.7 43.3 100 40.5C133.3 37.7 166.7 32.3 200 31.2C233.3 30 266.7 33 300 35.3C333.3 37.7 366.7 39.3 400 40.8C433.3 42.3 466.7 43.7 500 45.2C533.3 46.7 566.7 48.3 600 46.3C633.3 44.3 666.7 38.7 700 36.8C733.3 35 766.7 37 800 39.3C833.3 41.7 866.7 44.3 883.3 45.7L900 47L900 0L883.3 0C866.7 0 833.3 0 800 0C766.7 0 733.3 0 700 0C666.7 0 633.3 0 600 0C566.7 0 533.3 0 500 0C466.7 0 433.3 0 400 0C366.7 0 333.3 0 300 0C266.7 0 233.3 0 200 0C166.7 0 133.3 0 100 0C66.7 0 33.3 0 16.7 0L0 0Z" fill="#f5deb3"></path></svg>